{
.appVersion = "3343";
.formatVersion = 3;
DisplayStrings = (
"And this is the 
first shit attempt 
at a multunit
typeface ",
fragile,
"Bedrals Cacomixls Coachloads Hellenise Crunches Aniseeds Bacchanalians Hexes Airspeed Cablevision Chelonia Caldwell Cummerbund Aoudads Colourless Cancroid Brownies Adrenals Aquilegia Accesses Blanched Bug Hulls Haram Hide Clavicular Hens Braid Congo Chloridising",
"overpriced gwiniads quoins adjoining quadrillion heelless worshipper laagers reives shawls roughhousing nidus horsewomen separable redivides creamwove predisposes submucosal paperers republicanism lochial lorimer sporogonia varioloid coralline wealds responsories parches chiliahedrons whippoorwills repos shingler comps caresses dismiss advance sogginess unperplexes circumcision geans geologic rides bruhahas unarisen epicism convenances sprawling lavaboes mummies brinjals cosmographers schuls golpes dissolvableness emporium cooee corsair unhewn superciliousness laicising impish revengers dishonoured judicial inveighed mandolins brushwoods dipodidae sinner overbrowed Hobbes ironised naiad pinguin hesperids voidances prog prolixness appraising slicings winnle ensconced appeasing lingers marlier inconvenienced harmonogram smelliness Americanese quadricone Bunsen bobbed paraphraser plaques primuses peperomia nomades ideographical volva neembs severed screech radiophones bridgeable Acmeism caimacs cassis boarhounds properdin analogises digraphs governed racemise pram jiver Brussels sermonisers diagonal ligure masoned riverless Hippuris liberalism suaveness drabbler penholder manumissions groused micrococcus pagri renewers signorino chersoneses slinger wire doodlebug shadowgraphs eriophorum showerier vril sedged adeeming sconcheon bemused paracmes prolamine inhauler exponible climbing bargees",
ABCHabcdeghijlmnopqrsuvwx,
h,
j,
f,
kleptocracy,
t,
blaze,
spal,
"A big fucking split lip",

glyphs = (
{
glyphname = A;
lastChange = "2025-06-23 01:21:26 +0000";
layers = (
{
layerId = m01;
shapes = (
{
closed = 1;
nodes = (
(138,0,l),
(358,700,l),
(268,700,l),
(48,0,l)
);
},
{
closed = 1;
nodes = (
(362,700,l),
(272,700,l),
(502,0,l),
(592,0,l)
);
},
{
closed = 1;
nodes = (
(469,182,l),
(469,268,l),
(179,268,l),
(179,182,l)
);
}
);
width = 640;
}
);
unicode = 65;
},
{
glyphname = B;
lastChange = "2025-06-23 01:30:24 +0000";
layers = (
{
layerId = m01;
shapes = (
{
closed = 1;
nodes = (
(107,2,l),
(193,2,l),
(193,700,l),
(107,700,l)
);
},
{
closed = 1;
nodes = (
(370,336,l),
(370,422,l),
(121,422,l),
(121,336,l)
);
},
{
closed = 1;
nodes = (
(310,614,l),
(310,700,l),
(121,700,l),
(121,614,l)
);
},
{
closed = 1;
nodes = (
(370,0,l),
(370,86,l),
(121,86,l),
(121,0,l)
);
},
{
closed = 1;
nodes = (
(370,0,l),
(477,0,o),
(571,84,o),
(571,211,cs),
(571,338,o),
(477,422,o),
(370,422,c),
(370,336,l),
(429,336,o),
(485,290,o),
(485,211,cs),
(485,132,o),
(429,86,o),
(370,86,c)
);
},
{
closed = 1;
nodes = (
(310,336,l),
(417,336,o),
(511,422,o),
(511,519,cs),
(511,619,o),
(445,700,o),
(310,700,c),
(310,614,l),
(397,614,o),
(425,571,o),
(425,519,cs),
(425,470,o),
(397,422,o),
(310,422,c)
);
}
);
width = 640;
}
);
unicode = 66;
},
{
glyphname = C;
lastChange = "2025-06-23 01:18:11 +0000";
layers = (
{
layerId = m01;
shapes = (
{
closed = 1;
nodes = (
(115,349,l),
(115,528,o),
(207,630,o),
(320,630,cs),
(392,630,o),
(456,588,o),
(493,511,c),
(565,559,l),
(514,661,o),
(423,716,o),
(320,716,cs),
(160,716,o),
(29,582,o),
(29,349,c)
);
},
{
closed = 1;
nodes = (
(29,116,o),
(160,-18,o),
(320,-18,cs),
(423,-18,o),
(514,37,o),
(565,139,c),
(493,187,l),
(456,110,o),
(392,68,o),
(320,68,cs),
(207,68,o),
(115,170,o),
(115,349,c),
(29,349,l)
);
}
);
width = 640;
}
);
unicode = 67;
},
{
glyphname = D;
lastChange = "2025-06-23 17:50:05 +0000";
layers = (
{
layerId = m01;
shapes = (
{
closed = 1;
nodes = (
(107,2,l),
(193,2,l),
(193,700,l),
(107,700,l)
);
},
{
closed = 1;
nodes = (
(310,614,l),
(310,700,l),
(121,700,l),
(121,614,l)
);
},
{
closed = 1;
nodes = (
(310,0,l),
(310,86,l),
(121,86,l),
(121,0,l)
);
},
{
closed = 1;
nodes = (
(310,614,l),
(423,614,o),
(515,530,o),
(515,351,cs),
(515,188,o),
(423,86,o),
(310,86,c),
(310,0,l),
(470,0,o),
(601,134,o),
(601,351,cs),
(601,584,o),
(470,700,o),
(310,700,c)
);
}
);
width = 640;
}
);
unicode = 68;
},
{
glyphname = E;
lastChange = "2025-06-23 17:50:57 +0000";
layers = (
{
layerId = m01;
shapes = (
{
closed = 1;
nodes = (
(107,2,l),
(193,2,l),
(193,700,l),
(107,700,l)
);
},
{
closed = 1;
nodes = (
(370,336,l),
(370,422,l),
(121,422,l),
(121,336,l)
);
},
{
closed = 1;
nodes = (
(487,614,l),
(487,700,l),
(121,700,l),
(121,614,l)
);
},
{
closed = 1;
nodes = (
(487,0,l),
(487,86,l),
(121,86,l),
(121,0,l)
);
}
);
width = 640;
}
);
unicode = 69;
},
{
glyphname = F;
lastChange = "2025-06-23 17:51:07 +0000";
layers = (
{
layerId = m01;
shapes = (
{
closed = 1;
nodes = (
(107,2,l),
(193,2,l),
(193,700,l),
(107,700,l)
);
},
{
closed = 1;
nodes = (
(370,306,l),
(370,392,l),
(121,392,l),
(121,306,l)
);
},
{
closed = 1;
nodes = (
(487,614,l),
(487,700,l),
(121,700,l),
(121,614,l)
);
}
);
width = 640;
}
);
unicode = 70;
},
{
glyphname = G;
lastChange = "2025-06-23 18:02:57 +0000";
layers = (
{
layerId = m01;
shapes = (
{
closed = 1;
nodes = (
(115,349,l),
(115,528,o),
(207,630,o),
(320,630,cs),
(392,630,o),
(456,588,o),
(493,511,c),
(565,559,l),
(514,661,o),
(423,716,o),
(320,716,cs),
(160,716,o),
(29,582,o),
(29,349,c)
);
},
{
closed = 1;
nodes = (
(29,116,o),
(160,-18,o),
(320,-18,cs),
(423,-18,o),
(514,37,o),
(565,139,c),
(493,187,l),
(456,110,o),
(392,68,o),
(320,68,cs),
(207,68,o),
(115,170,o),
(115,349,c),
(29,349,l)
);
}
);
width = 640;
}
);
unicode = 71;
},
{
glyphname = H;
lastChange = "2025-06-23 01:25:27 +0000";
layers = (
{
layerId = m01;
shapes = (
{
closed = 1;
nodes = (
(107,2,l),
(193,2,l),
(193,700,l),
(107,700,l)
);
},
{
closed = 1;
nodes = (
(447,2,l),
(533,2,l),
(533,700,l),
(447,700,l)
);
},
{
closed = 1;
nodes = (
(469,348,l),
(469,434,l),
(121,434,l),
(121,348,l)
);
}
);
width = 640;
}
);
unicode = 72;
},
{
glyphname = I;
lastChange = "2025-06-23 18:00:27 +0000";
layers = (
{
layerId = m01;
shapes = (
{
closed = 1;
nodes = (
(197,2,l),
(283,2,l),
(283,700,l),
(197,700,l)
);
},
{
closed = 0;
nodes = (
(429,86,l),
(51,86,l)
);
},
{
closed = 1;
nodes = (
(51,86,l),
(51,0,l),
(429,0,l),
(429,86,l)
);
},
{
closed = 0;
nodes = (
(429,700,l),
(51,700,l)
);
},
{
closed = 1;
nodes = (
(51,700,l),
(51,614,l),
(429,614,l),
(429,700,l)
);
}
);
width = 480;
}
);
unicode = 73;
},
{
glyphname = J;
lastChange = "2025-06-23 18:20:37 +0000";
layers = (
{
layerId = m01;
shapes = (
{
closed = 0;
nodes = (
(401,209,l),
(401,700,l)
);
},
{
closed = 1;
nodes = (
(401,700,l),
(315,700,l),
(315,209,l),
(401,209,l)
);
},
{
closed = 1;
nodes = (
(34,31,l),
(74,-1,o),
(117,-18,o),
(180,-18,cs),
(310,-18,o),
(401,46,o),
(401,209,c),
(315,209,l),
(315,100,o),
(263,68,o),
(180,68,cs),
(138,68,o),
(115,78,o),
(90,99,c)
);
},
{
closed = 1;
nodes = (
(51,700,l),
(51,614,l),
(356,614,l),
(356,700,l)
);
}
);
width = 480;
}
);
unicode = 74;
},
{
glyphname = K;
lastChange = "2025-06-23 18:24:39 +0000";
layers = (
{
layerId = m01;
shapes = (
{
closed = 1;
nodes = (
(51,2,l),
(137,2,l),
(137,700,l),
(51,700,l)
);
},
{
closed = 1;
nodes = (
(271,393,l),
(175,393,l),
(466,0,l),
(562,0,l)
);
},
{
closed = 1;
nodes = (
(65,236,l),
(137,236,l),
(529,700,l),
(423,700,l),
(65,273,l)
);
}
);
width = 640;
}
);
unicode = 75;
},
{
glyphname = L;
lastChange = "2025-06-23 18:03:50 +0000";
layers = (
{
layerId = m01;
shapes = (
{
closed = 1;
nodes = (
(51,2,l),
(137,2,l),
(137,700,l),
(51,700,l)
);
},
{
closed = 0;
nodes = (
(550,86,l),
(51,86,l)
);
},
{
closed = 1;
nodes = (
(51,86,l),
(51,0,l),
(550,0,l),
(550,86,l)
);
}
);
width = 640;
}
);
unicode = 76;
},
{
glyphname = M;
lastChange = "2025-06-23 18:06:50 +0000";
layers = (
{
layerId = m01;
shapes = (
{
closed = 1;
nodes = (
(107,2,l),
(193,2,l),
(193,700,l),
(107,700,l)
);
},
{
closed = 1;
nodes = (
(607,2,l),
(693,2,l),
(693,700,l),
(607,700,l)
);
},
{
closed = 1;
nodes = (
(357,109,l),
(443,109,l),
(193,700,l),
(107,700,l)
);
},
{
closed = 1;
nodes = (
(607,700,l),
(357,109,l),
(443,109,l),
(693,700,l)
);
}
);
width = 800;
}
);
unicode = 77;
},
{
glyphname = N;
lastChange = "2025-06-23 18:09:08 +0000";
layers = (
{
layerId = m01;
shapes = (
{
closed = 1;
nodes = (
(107,2,l),
(193,2,l),
(193,700,l),
(107,700,l)
);
},
{
closed = 1;
nodes = (
(447,2,l),
(533,2,l),
(533,700,l),
(447,700,l)
);
},
{
closed = 1;
nodes = (
(447,2,l),
(533,2,l),
(193,700,l),
(107,700,l)
);
}
);
width = 640;
}
);
unicode = 78;
},
{
glyphname = O;
lastChange = "2025-06-23 17:57:26 +0000";
layers = (
{
layerId = m01;
shapes = (
{
closed = 1;
nodes = (
(433,630,o),
(525,528,o),
(525,349,cs),
(525,170,o),
(433,68,o),
(320,68,cs),
(207,68,o),
(115,170,o),
(115,349,cs),
(115,528,o),
(207,630,o),
(320,630,cs)
);
},
{
closed = 1;
nodes = (
(480,-18,o),
(611,116,o),
(611,349,cs),
(611,582,o),
(480,716,o),
(320,716,cs),
(160,716,o),
(29,582,o),
(29,349,cs),
(29,116,o),
(160,-18,o),
(320,-18,cs)
);
},
{
closed = 1;
nodes = (
(434,227,l),
(359,184,l),
(496,-54,l),
(570,-11,l)
);
}
);
width = 640;
}
);
unicode = 79;
},
{
glyphname = P;
lastChange = "2025-06-23 17:58:10 +0000";
layers = (
{
layerId = m01;
shapes = (
{
closed = 1;
nodes = (
(193,0,l),
(193,698,l),
(107,698,l),
(107,0,l)
);
},
{
closed = 1;
nodes = (
(121,278,l),
(370,278,l),
(370,364,l),
(121,364,l)
);
},
{
closed = 1;
nodes = (
(121,614,l),
(370,614,l),
(370,700,l),
(121,700,l)
);
},
{
closed = 1;
nodes = (
(429,614,o),
(485,568,o),
(485,489,cs),
(485,410,o),
(429,364,o),
(370,364,c),
(370,278,l),
(477,278,o),
(571,362,o),
(571,489,cs),
(571,616,o),
(477,700,o),
(370,700,c),
(370,614,l)
);
}
);
width = 640;
}
);
unicode = 80;
},
{
glyphname = Q;
lastChange = "2025-06-23 17:56:28 +0000";
layers = (
{
layerId = m01;
shapes = (
{
closed = 1;
nodes = (
(433,630,o),
(525,528,o),
(525,349,cs),
(525,170,o),
(433,68,o),
(320,68,cs),
(207,68,o),
(115,170,o),
(115,349,cs),
(115,528,o),
(207,630,o),
(320,630,cs)
);
},
{
closed = 1;
nodes = (
(480,-18,o),
(611,116,o),
(611,349,cs),
(611,582,o),
(480,716,o),
(320,716,cs),
(160,716,o),
(29,582,o),
(29,349,cs),
(29,116,o),
(160,-18,o),
(320,-18,cs)
);
}
);
width = 640;
}
);
unicode = 81;
},
{
glyphname = R;
lastChange = "2025-06-23 18:00:13 +0000";
layers = (
{
layerId = m01;
shapes = (
{
closed = 1;
nodes = (
(193,0,l),
(193,698,l),
(107,698,l),
(107,0,l)
);
},
{
closed = 1;
nodes = (
(121,318,l),
(370,318,l),
(370,404,l),
(121,404,l)
);
},
{
closed = 1;
nodes = (
(121,614,l),
(370,614,l),
(370,700,l),
(121,700,l)
);
},
{
closed = 1;
nodes = (
(429,614,o),
(485,568,o),
(485,509,cs),
(485,430,o),
(429,404,o),
(370,404,c),
(370,318,l),
(477,318,o),
(571,382,o),
(571,509,cs),
(571,616,o),
(477,700,o),
(370,700,c),
(370,614,l)
);
},
{
closed = 1;
nodes = (
(276,328,l),
(475,0,l),
(580,0,l),
(381,328,l)
);
}
);
width = 640;
}
);
unicode = 82;
},
{
glyphname = T;
lastChange = "2025-06-23 18:00:51 +0000";
layers = (
{
layerId = m01;
shapes = (
{
closed = 1;
nodes = (
(277,2,l),
(363,2,l),
(363,700,l),
(277,700,l)
);
},
{
closed = 0;
nodes = (
(589,700,l),
(51,700,l)
);
},
{
closed = 1;
nodes = (
(51,700,l),
(51,614,l),
(589,614,l),
(589,700,l)
);
}
);
width = 640;
}
);
unicode = 84;
},
{
glyphname = U;
lastChange = "2025-06-23 18:19:06 +0000";
layers = (
{
layerId = m01;
shapes = (
{
closed = 1;
nodes = (
(475,249,l),
(475,130,o),
(423,68,o),
(320,68,cs),
(217,68,o),
(165,130,o),
(165,249,c),
(79,249,l),
(79,76,o),
(170,-18,o),
(320,-18,cs),
(470,-18,o),
(561,76,o),
(561,249,c)
);
},
{
closed = 0;
nodes = (
(165,249,l),
(165,700,l)
);
},
{
closed = 1;
nodes = (
(165,700,l),
(79,700,l),
(79,249,l),
(165,249,l)
);
},
{
closed = 0;
nodes = (
(561,249,l),
(561,700,l)
);
},
{
closed = 1;
nodes = (
(561,700,l),
(475,700,l),
(475,249,l),
(561,249,l)
);
}
);
width = 640;
}
);
unicode = 85;
},
{
glyphname = V;
lastChange = "2025-06-23 18:11:06 +0000";
layers = (
{
layerId = m01;
shapes = (
{
closed = 1;
nodes = (
(277,1,l),
(363,1,l),
(133,700,l),
(47,700,l)
);
},
{
closed = 1;
nodes = (
(507,700,l),
(277,1,l),
(363,1,l),
(593,700,l)
);
}
);
width = 640;
}
);
unicode = 86;
},
{
glyphname = W;
lastChange = "2025-06-23 18:13:12 +0000";
layers = (
{
layerId = m01;
shapes = (
{
closed = 1;
nodes = (
(242,1,l),
(328,1,l),
(133,700,l),
(47,700,l)
);
},
{
closed = 1;
nodes = (
(473,1,l),
(559,1,l),
(364,700,l),
(278,700,l)
);
},
{
closed = 1;
nodes = (
(668,700,l),
(473,1,l),
(559,1,l),
(754,700,l)
);
},
{
closed = 1;
nodes = (
(379,491,l),
(242,1,l),
(328,1,l),
(420,332,l)
);
}
);
width = 800;
}
);
unicode = 87;
},
{
glyphname = X;
lastChange = "2025-06-23 18:14:24 +0000";
layers = (
{
layerId = m01;
shapes = (
{
closed = 1;
nodes = (
(348,342,l),
(568,700,l),
(482,700,l),
(305,412,l)
);
},
{
closed = 1;
nodes = (
(163,700,l),
(77,700,l),
(507,1,l),
(593,1,l)
);
},
{
closed = 1;
nodes = (
(300,412,l),
(47,1,l),
(133,1,l),
(343,342,l)
);
}
);
width = 640;
}
);
unicode = 88;
},
{
glyphname = Y;
lastChange = "2025-06-23 18:15:38 +0000";
layers = (
{
layerId = m01;
shapes = (
{
closed = 1;
nodes = (
(343,408,l),
(163,700,l),
(77,700,l),
(288,358,l)
);
},
{
closed = 1;
nodes = (
(348,342,l),
(568,700,l),
(482,700,l),
(305,412,l)
);
},
{
closed = 1;
nodes = (
(277,0,l),
(363,0,l),
(363,400,l),
(277,400,l)
);
}
);
width = 640;
}
);
unicode = 89;
},
{
glyphname = Z;
lastChange = "2025-06-23 18:16:52 +0000";
layers = (
{
layerId = m01;
shapes = (
{
closed = 1;
nodes = (
(81,76,l),
(197,76,l),
(557,624,l),
(441,624,l)
);
},
{
closed = 1;
nodes = (
(81,76,l),
(81,0,l),
(429,0,l),
(559,76,l)
);
},
{
closed = 1;
nodes = (
(81,76,l),
(81,0,l),
(559,0,l),
(559,76,l)
);
},
{
closed = 1;
nodes = (
(81,700,l),
(81,624,l),
(559,624,l),
(559,700,l)
);
}
);
width = 640;
}
);
unicode = 90;
},
{
glyphname = a;
lastChange = "2025-06-24 18:40:11 +0000";
layers = (
{
backgroundImage = {
imagePath = "../../T-03/images/slice_18.jpg";
locked = 1;
pos = (88,-100);
scale = (1.71,1.71);
};
layerId = m01;
shapes = (
{
closed = 1;
nodes = (
(295,0,l),
(381,0,l),
(381,259,l),
(295,259,l)
);
},
{
closed = 1;
nodes = (
(281,245,o),
(210,236,o),
(175,236,cs),
(111,236,o),
(48,195,o),
(48,122,cs),
(48,52,o),
(90,-16,o),
(190,-17,cs),
(242,-18,o),
(295,7,o),
(295,36,c),
(295,149,l),
(295,71,o),
(257,50,o),
(198,50,cs),
(175,50,o),
(134,71,o),
(134,114,cs),
(134,155,o),
(183,170,o),
(207,170,cs),
(263,170,o),
(295,179,o),
(295,195,c),
(295,279,l)
);
},
{
closed = 1;
nodes = (
(107,299,l),
(138,333,o),
(166,343,o),
(200,343,cs),
(229,343,o),
(294,327,o),
(295,259,c),
(381,259,l),
(380,375,o),
(277,409,o),
(200,409,cs),
(152,409,o),
(90,378,o),
(61,343,c)
);
},
{
closed = 1;
nodes = (
(381,66,l),
(381,0,l),
(447,0,l),
(447,66,l)
);
}
);
width = 480;
}
);
unicode = 97;
},
{
glyphname = b;
lastChange = "2025-06-23 03:11:24 +0000";
layers = (
{
layerId = m01;
shapes = (
{
closed = 1;
nodes = (
(367,-13,o),
(451,71,o),
(451,198,cs),
(451,325,o),
(367,409,o),
(250,409,cs),
(143,409,o),
(49,325,o),
(49,198,cs),
(49,71,o),
(143,-13,o),
(250,-13,cs)
);
},
{
closed = 1;
nodes = (
(191,73,o),
(135,119,o),
(135,198,cs),
(135,277,o),
(191,323,o),
(250,323,cs),
(319,323,o),
(365,277,o),
(365,198,cs),
(365,119,o),
(319,73,o),
(250,73,cs)
);
},
{
closed = 1;
nodes = (
(49,700,l),
(49,0,l),
(135,0,l),
(135,700,l)
);
}
);
width = 480;
}
);
unicode = 98;
},
{
glyphname = c;
lastChange = "2025-06-23 03:11:11 +0000";
layers = (
{
layerId = m01;
shapes = (
{
closed = 1;
nodes = (
(433,312,l),
(399,373,o),
(337,409,o),
(260,409,cs),
(143,409,o),
(59,325,o),
(59,198,cs),
(59,71,o),
(153,-13,o),
(260,-13,cs),
(334,-13,o),
(389,20,o),
(427,77,c),
(350,119,l),
(328,89,o),
(301,73,o),
(260,73,c),
(191,73,o),
(145,119,o),
(145,198,cs),
(145,277,o),
(191,323,o),
(260,323,cs),
(301,323,o),
(334,307,o),
(354,277,c)
);
}
);
width = 480;
}
);
unicode = 99;
},
{
glyphname = d;
lastChange = "2025-06-23 00:50:39 +0000";
layers = (
{
layerId = m01;
shapes = (
{
closed = 1;
nodes = (
(337,-13,o),
(431,71,o),
(431,198,cs),
(431,325,o),
(337,409,o),
(230,409,cs),
(113,409,o),
(29,325,o),
(29,198,cs),
(29,71,o),
(113,-13,o),
(230,-13,cs)
);
},
{
closed = 1;
nodes = (
(161,73,o),
(115,119,o),
(115,198,cs),
(115,277,o),
(161,323,o),
(230,323,cs),
(289,323,o),
(345,277,o),
(345,198,cs),
(345,119,o),
(289,73,o),
(230,73,cs)
);
},
{
closed = 1;
nodes = (
(345,0,l),
(431,0,l),
(431,700,l),
(345,700,l)
);
}
);
width = 480;
}
);
unicode = 100;
},
{
glyphname = e;
lastChange = "2025-06-23 00:47:51 +0000";
layers = (
{
layerId = m01;
shapes = (
{
closed = 1;
nodes = (
(125,157,l),
(421,157,l),
(421,239,l),
(125,239,l)
);
},
{
closed = 1;
nodes = (
(330,119,l),
(308,89,o),
(281,73,o),
(240,73,c),
(171,73,o),
(125,119,o),
(125,198,cs),
(125,277,o),
(171,323,o),
(240,323,cs),
(309,323,o),
(355,277,o),
(355,198,cs),
(355,183,o),
(353,169,o),
(349,157,c),
(438,157,l),
(440,170,o),
(441,184,o),
(441,198,cs),
(441,325,o),
(357,409,o),
(240,409,cs),
(123,409,o),
(39,325,o),
(39,198,cs),
(39,71,o),
(133,-13,o),
(240,-13,cs),
(314,-13,o),
(369,20,o),
(407,77,c)
);
}
);
width = 480;
}
);
unicode = 101;
},
{
glyphname = f;
lastChange = "2025-06-23 16:58:50 +0000";
layers = (
{
layerId = m01;
shapes = (
{
closed = 1;
nodes = (
(176,433,l),
(90,433,l),
(90,0,l),
(176,0,l)
);
},
{
closed = 1;
nodes = (
(328,560,l),
(295,588,o),
(255,604,o),
(211,604,cs),
(116,604,o),
(90,520,o),
(90,433,c),
(176,433,l),
(176,472,o),
(179,518,o),
(219,518,cs),
(239,518,o),
(258,512,o),
(270,499,c)
);
},
{
closed = 1;
nodes = (
(25,393,l),
(25,307,l),
(248,307,l),
(248,393,l)
);
}
);
width = 320;
}
);
unicode = 102;
},
{
glyphname = g;
lastChange = "2025-06-23 00:48:40 +0000";
layers = (
{
backgroundImage = {
imagePath = "../../T-03/images/slice_12.jpg";
pos = (0,-453);
scale = (1.71,1.71);
};
layerId = m01;
shapes = (
{
closed = 1;
nodes = (
(337,-13,o),
(431,71,o),
(431,198,cs),
(431,325,o),
(337,409,o),
(230,409,cs),
(113,409,o),
(29,325,o),
(29,198,cs),
(29,71,o),
(113,-13,o),
(230,-13,cs)
);
},
{
closed = 1;
nodes = (
(161,73,o),
(115,119,o),
(115,198,cs),
(115,277,o),
(161,323,o),
(230,323,cs),
(289,323,o),
(345,277,o),
(345,198,cs),
(345,119,o),
(289,73,o),
(230,73,cs)
);
},
{
closed = 1;
nodes = (
(345,-53,l),
(431,-53,l),
(431,393,l),
(345,393,l)
);
},
{
closed = 1;
nodes = (
(345,-132,o),
(299,-178,o),
(230,-178,c),
(189,-178,o),
(162,-162,o),
(140,-132,c),
(63,-174,l),
(101,-231,o),
(156,-264,o),
(230,-264,cs),
(337,-264,o),
(431,-180,o),
(431,-53,c),
(345,-53,l)
);
}
);
width = 480;
}
);
unicode = 103;
},
{
glyphname = h;
lastChange = "2025-06-23 03:05:05 +0000";
layers = (
{
layerId = m01;
shapes = (
{
closed = 1;
nodes = (
(431,259,l),
(430,375,o),
(327,409,o),
(230,409,cs),
(143,409,o),
(78,355,o),
(77,199,c),
(115,199,l),
(116,317,o),
(161,343,o),
(230,343,cs),
(279,343,o),
(344,327,o),
(345,259,c)
);
},
{
closed = 1;
nodes = (
(345,0,l),
(431,0,l),
(431,259,l),
(345,259,l)
);
},
{
closed = 1;
nodes = (
(29,0,l),
(115,0,l),
(115,700,l),
(29,700,l)
);
}
);
width = 480;
}
);
unicode = 104;
},
{
glyphname = i;
lastChange = "2025-06-23 17:32:34 +0000";
layers = (
{
layerId = m01;
shapes = (
{
closed = 1;
nodes = (
(117,0,l),
(203,0,l),
(203,393,l),
(117,393,l)
);
},
{
closed = 1;
nodes = (
(188,479,o),
(207,498,o),
(207,527,cs),
(207,555,o),
(188,574,o),
(160,574,cs),
(131,574,o),
(112,555,o),
(112,527,cs),
(112,498,o),
(131,479,o),
(160,479,cs)
);
},
{
closed = 0;
nodes = (
(269,86,l),
(51,86,l)
);
},
{
closed = 1;
nodes = (
(51,86,l),
(51,0,l),
(269,0,l),
(269,86,l)
);
},
{
closed = 0;
nodes = (
(197,393,l),
(51,393,l)
);
},
{
closed = 1;
nodes = (
(51,393,l),
(51,307,l),
(197,307,l),
(197,393,l)
);
}
);
width = 320;
}
);
unicode = 105;
},
{
glyphname = j;
lastChange = "2025-06-23 03:10:34 +0000";
layers = (
{
layerId = m01;
shapes = (
{
closed = 1;
nodes = (
(117,0,l),
(203,0,l),
(203,393,l),
(117,393,l)
);
},
{
closed = 1;
nodes = (
(188,479,o),
(207,498,o),
(207,527,cs),
(207,555,o),
(188,574,o),
(160,574,cs),
(131,574,o),
(112,555,o),
(112,527,cs),
(112,498,o),
(131,479,o),
(160,479,cs)
);
},
{
closed = 1;
nodes = (
(-35,-167,l),
(-2,-195,o),
(38,-211,o),
(82,-211,cs),
(177,-211,o),
(203,-127,o),
(203,0,c),
(117,0,l),
(117,-79,o),
(121,-125,o),
(82,-125,c),
(50,-125,o),
(35,-119,o),
(23,-106,c)
);
}
);
width = 320;
}
);
unicode = 106;
},
{
glyphname = k;
lastChange = "2025-06-23 17:39:12 +0000";
layers = (
{
layerId = m01;
shapes = (
{
closed = 1;
nodes = (
(51,2,l),
(137,2,l),
(137,700,l),
(51,700,l)
);
},
{
closed = 1;
nodes = (
(278,269,l),
(182,269,l),
(317,4,l),
(413,4,l)
);
},
{
closed = 1;
nodes = (
(65,118,l),
(137,118,l),
(394,394,l),
(288,394,l),
(65,155,l)
);
}
);
width = 480;
}
);
unicode = 107;
},
{
glyphname = l;
lastChange = "2025-06-23 18:26:00 +0000";
layers = (
{
layerId = m01;
shapes = (
{
closed = 1;
nodes = (
(117,2,l),
(203,2,l),
(203,700,l),
(117,700,l)
);
},
{
closed = 1;
nodes = (
(51,700,l),
(51,614,l),
(117,614,l),
(117,700,l)
);
},
{
closed = 0;
nodes = (
(269,86,l),
(51,86,l)
);
},
{
closed = 1;
nodes = (
(51,86,l),
(51,0,l),
(269,0,l),
(269,86,l)
);
}
);
width = 320;
}
);
unicode = 108;
},
{
glyphname = m;
lastChange = "2025-06-23 03:04:18 +0000";
layers = (
{
layerId = m01;
shapes = (
{
closed = 1;
nodes = (
(431,259,l),
(430,375,o),
(327,409,o),
(250,409,cs),
(143,409,o),
(78,355,o),
(77,199,c),
(115,199,l),
(116,317,o),
(161,343,o),
(250,343,cs),
(279,343,o),
(344,327,o),
(345,259,c)
);
},
{
closed = 1;
nodes = (
(345,0,l),
(431,0,l),
(431,259,l),
(345,259,l)
);
},
{
closed = 1;
nodes = (
(29,0,l),
(115,0,l),
(115,393,l),
(29,393,l)
);
},
{
closed = 1;
nodes = (
(747,259,l),
(746,375,o),
(643,409,o),
(566,409,cs),
(459,409,o),
(394,355,o),
(393,199,c),
(431,199,l),
(432,317,o),
(477,343,o),
(566,343,cs),
(595,343,o),
(660,327,o),
(661,259,c)
);
},
{
closed = 1;
nodes = (
(661,0,l),
(747,0,l),
(747,259,l),
(661,259,l)
);
}
);
width = 800;
}
);
unicode = 109;
},
{
glyphname = n;
lastChange = "2025-06-23 00:59:37 +0000";
layers = (
{
backgroundImage = {
imagePath = "../../T-03/images/slice_07.jpg";
locked = 1;
pos = (0,-153);
scale = (1.71,1.71);
};
layerId = m01;
shapes = (
{
closed = 1;
nodes = (
(431,259,l),
(430,375,o),
(327,409,o),
(230,409,cs),
(143,409,o),
(78,355,o),
(77,199,c),
(115,199,l),
(116,317,o),
(161,343,o),
(230,343,cs),
(279,343,o),
(344,327,o),
(345,259,c)
);
},
{
closed = 1;
nodes = (
(345,0,l),
(431,0,l),
(431,259,l),
(345,259,l)
);
},
{
closed = 1;
nodes = (
(29,0,l),
(115,0,l),
(115,393,l),
(29,393,l)
);
}
);
width = 480;
}
);
unicode = 110;
},
{
glyphname = o;
lastChange = "2025-06-23 00:17:10 +0000";
layers = (
{
backgroundImage = {
imagePath = "../../T-03/images/slice_15.jpg";
pos = (-4,-97);
scale = (1.7067,1.7067);
};
layerId = m01;
shapes = (
{
closed = 1;
nodes = (
(357,-13,o),
(451,71,o),
(451,198,cs),
(451,325,o),
(357,409,o),
(240,409,cs),
(123,409,o),
(29,325,o),
(29,198,cs),
(29,71,o),
(123,-13,o),
(240,-13,cs)
);
},
{
closed = 1;
nodes = (
(171,73,o),
(115,119,o),
(115,198,cs),
(115,277,o),
(171,323,o),
(240,323,cs),
(309,323,o),
(365,277,o),
(365,198,cs),
(365,119,o),
(309,73,o),
(240,73,cs)
);
}
);
width = 480;
}
);
unicode = 111;
},
{
glyphname = p;
lastChange = "2025-06-23 03:11:41 +0000";
layers = (
{
layerId = m01;
shapes = (
{
closed = 1;
nodes = (
(143,410,o),
(49,326,o),
(49,199,cs),
(49,72,o),
(143,-12,o),
(250,-12,cs),
(367,-12,o),
(451,72,o),
(451,199,cs),
(451,326,o),
(367,410,o),
(250,410,cs)
);
},
{
closed = 1;
nodes = (
(319,324,o),
(365,278,o),
(365,199,cs),
(365,120,o),
(319,74,o),
(250,74,cs),
(191,74,o),
(135,120,o),
(135,199,cs),
(135,278,o),
(191,324,o),
(250,324,cs)
);
},
{
closed = 1;
nodes = (
(135,397,l),
(49,397,l),
(49,-303,l),
(135,-303,l)
);
}
);
width = 480;
}
);
unicode = 112;
},
{
glyphname = q;
lastChange = "2025-06-23 03:11:50 +0000";
layers = (
{
layerId = m01;
shapes = (
{
closed = 1;
nodes = (
(113,410,o),
(29,326,o),
(29,199,cs),
(29,72,o),
(113,-12,o),
(230,-12,cs),
(337,-12,o),
(431,72,o),
(431,199,cs),
(431,326,o),
(337,410,o),
(230,410,cs)
);
},
{
closed = 1;
nodes = (
(289,324,o),
(345,278,o),
(345,199,cs),
(345,120,o),
(289,74,o),
(230,74,cs),
(161,74,o),
(115,120,o),
(115,199,cs),
(115,278,o),
(161,324,o),
(230,324,cs)
);
},
{
closed = 1;
nodes = (
(431,-303,l),
(431,397,l),
(345,397,l),
(345,-303,l)
);
}
);
width = 480;
}
);
unicode = 113;
},
{
glyphname = r;
lastChange = "2025-06-23 03:13:20 +0000";
layers = (
{
layerId = m01;
shapes = (
{
closed = 1;
nodes = (
(304,405,l),
(286,408,o),
(268,409,o),
(250,409,cs),
(163,409,o),
(98,355,o),
(97,199,c),
(135,199,l),
(136,317,o),
(181,343,o),
(250,343,cs),
(262,343,o),
(275,342,o),
(288,340,c)
);
},
{
closed = 1;
nodes = (
(49,0,l),
(135,0,l),
(135,393,l),
(49,393,l)
);
}
);
width = 320;
}
);
unicode = 114;
},
{
glyphname = s;
lastChange = "2025-06-24 18:39:39 +0000";
layers = (
{
layerId = m01;
shapes = (
{
closed = 1;
nodes = (
(95,409,o),
(28,377,o),
(28,286,cs),
(28,211,o),
(101,182,o),
(130,172,cs),
(162,161,o),
(218,153,o),
(218,118,cs),
(218,81,o),
(197,53,o),
(150,53,cs),
(103,53,o),
(90,80,o),
(65,99,c),
(16,38,l),
(59,0,o),
(95,-15,o),
(158,-15,cs),
(219,-15,o),
(304,23,o),
(304,118,cs),
(304,206,o),
(217,233,o),
(179,242,cs),
(136,252,o),
(114,259,o),
(114,286,cs),
(114,306,o),
(124,329,o),
(152,329,cs),
(181,329,o),
(214,313,o),
(238,301,c),
(276,368,l),
(250,391,o),
(212,409,o),
(152,409,cs)
);
}
);
width = 320;
}
);
unicode = 115;
},
{
glyphname = t;
lastChange = "2025-06-23 17:33:10 +0000";
layers = (
{
layerId = m01;
shapes = (
{
closed = 1;
nodes = (
(117,2,l),
(203,2,l),
(203,515,l),
(117,515,l)
);
},
{
closed = 1;
nodes = (
(51,0,l),
(269,0,l)
);
},
{
closed = 1;
nodes = (
(51,396,l),
(51,310,l),
(283,310,l),
(283,396,l)
);
}
);
width = 320;
}
);
unicode = 116;
},
{
glyphname = u;
lastChange = "2025-06-24 18:39:56 +0000";
layers = (
{
layerId = m01;
shapes = (
{
closed = 1;
nodes = (
(49,150,l),
(50,34,o),
(153,0,o),
(250,0,cs),
(337,0,o),
(402,54,o),
(403,210,c),
(365,210,l),
(364,92,o),
(319,66,o),
(250,66,cs),
(201,66,o),
(136,82,o),
(135,150,c)
);
},
{
closed = 1;
nodes = (
(135,409,l),
(49,409,l),
(49,150,l),
(135,150,l)
);
},
{
closed = 1;
nodes = (
(451,409,l),
(365,409,l),
(365,16,l),
(451,16,l)
);
}
);
width = 480;
}
);
unicode = 117;
},
{
glyphname = v;
lastChange = "2025-06-23 00:44:44 +0000";
layers = (
{
backgroundImage = {
imagePath = "../../T-03/images/slice_15.jpg";
pos = (0,-80);
scale = (1.7067,1.7067);
};
layerId = m01;
shapes = (
{
closed = 1;
nodes = (
(197,1,l),
(283,1,l),
(133,393,l),
(47,393,l)
);
},
{
closed = 1;
nodes = (
(347,393,l),
(197,1,l),
(283,1,l),
(433,393,l)
);
}
);
width = 480;
}
);
unicode = 118;
},
{
glyphname = w;
lastChange = "2025-06-23 03:16:11 +0000";
layers = (
{
layerId = m01;
shapes = (
{
closed = 1;
nodes = (
(155,1,l),
(241,1,l),
(134,393,l),
(48,393,l)
);
},
{
closed = 1;
nodes = (
(272,393,l),
(155,1,l),
(241,1,l),
(358,393,l)
);
},
{
closed = 1;
nodes = (
(389,1,l),
(475,1,l),
(358,393,l),
(272,393,l)
);
},
{
closed = 1;
nodes = (
(506,393,l),
(389,1,l),
(475,1,l),
(592,393,l)
);
}
);
width = 640;
}
);
unicode = 119;
},
{
glyphname = x;
lastChange = "2025-06-23 18:35:13 +0000";
layers = (
{
layerId = m01;
shapes = (
{
closed = 1;
nodes = (
(347,1,l),
(443,1,l),
(153,393,l),
(57,393,l)
);
},
{
closed = 1;
nodes = (
(316,393,l),
(37,1,l),
(133,1,l),
(412,393,l)
);
}
);
width = 480;
}
);
unicode = 120;
},
{
glyphname = y;
lastChange = "2025-06-23 17:44:44 +0000";
layers = (
{
layerId = m01;
shapes = (
{
closed = 1;
nodes = (
(197,1,l),
(283,1,l),
(133,393,l),
(47,393,l)
);
},
{
closed = 1;
nodes = (
(347,393,l),
(197,1,l),
(283,1,l),
(433,393,l)
);
},
{
closed = 1;
nodes = (
(5,-171,l),
(38,-199,o),
(78,-215,o),
(118,-215,cs),
(176,-215,o),
(221,-155,o),
(234,-121,cs),
(262,-51,o),
(278,-10,o),
(283,1,c),
(197,1,l),
(191,-20,o),
(173,-58,o),
(164,-81,cs),
(156,-102,o),
(141,-136,o),
(118,-136,cs),
(97,-136,o),
(72,-128,o),
(60,-115,c)
);
}
);
width = 480;
}
);
unicode = 121;
},
{
glyphname = z;
lastChange = "2025-06-23 18:43:48 +0000";
layers = (
{
layerId = m01;
shapes = (
{
closed = 1;
nodes = (
(81,76,l),
(197,76,l),
(397,320,l),
(281,320,l)
);
},
{
closed = 1;
nodes = (
(81,76,l),
(81,0,l),
(399,0,l),
(399,76,l)
);
},
{
closed = 1;
nodes = (
(81,396,l),
(81,320,l),
(399,320,l),
(399,396,l)
);
}
);
width = 480;
}
);
unicode = 122;
},
